<svg width="39" height="23" viewBox="0 0 39 23" fill="none" xmlns="http://www.w3.org/2000/svg">
<path d="M693.783 0C684.142 0 684.142 9.88235 674.567 9.88235C664.992 9.88235 664.925 0 655.35 0C645.776 0 645.709 9.88235 636.134 9.88235C626.492 9.88235 626.492 0 616.85 0C607.209 0 607.209 9.88235 597.634 9.88235C587.992 9.88235 587.992 0 578.417 0C568.776 0 568.776 9.88235 559.201 9.88235C549.626 9.88235 549.358 0 539.783 0C530.142 0 530.142 9.88235 520.567 9.88235C510.992 9.88235 510.858 0 501.283 0C491.642 0 491.642 9.88235 482.067 9.88235C472.425 9.88235 472.425 0 462.783 0C453.142 0 453.142 9.88235 443.567 9.88235C433.925 9.88235 433.925 0 424.35 0C414.776 0 414.642 9.88235 405 9.88235C395.358 9.88235 395.358 0 385.783 0C376.142 0 376.142 9.88235 366.567 9.88235C356.925 9.88235 356.925 0 347.283 0C337.642 0 337.642 9.88235 328.067 9.88235C318.425 9.88235 318.425 0 308.85 0C299.209 0 299.209 9.88235 289.634 9.88235C279.992 9.88235 279.992 0 270.417 0C260.776 0 260.776 9.88235 251.134 9.88235C241.492 9.88235 241.492 0 231.85 0C222.209 0 222.209 9.88235 212.567 9.88235C202.925 9.88235 202.925 0 193.283 0C183.642 0 183.642 9.88235 174 9.88235C164.358 9.88235 164.358 0 154.717 0C145.075 0 145.075 9.88235 135.433 9.88235C125.791 9.88235 125.791 0 116.15 0C106.508 0 106.508 9.88235 96.933 9.88235C87.2913 9.88235 87.2913 0 77.6496 0C68.0078 0 68.0078 9.88235 58.3661 9.88235C48.7243 9.88235 48.7243 0 39.0826 0C29.4409 0 29.4409 9.88235 19.7991 9.88235C10.1574 9.88235 10.1574 0 0.515652 0C-8.85826 0 -8.85826 9.88235 -18.5 9.88235C-28.1417 9.88235 -28.1417 0 -37.7165 0C-47.2913 0 -47.3583 9.88235 -57 9.88235V24H713V9.88235C703.358 9.88235 703.358 0 693.783 0Z" fill="white"/>
</svg>
